<?xml version="1.0" encoding="UTF-8" standalone="no"?>
<svg
   width="25.338778mm"
   height="25.338726mm"
   viewBox="0 0 25.338778 25.338727"
   version="1.1"
   id="svg1"
   sodipodi:docname="search-wireframe.svg"
   inkscape:version="1.3.2 (091e20ef0f, 2023-11-25)"
   xmlns:inkscape="http://www.inkscape.org/namespaces/inkscape"
   xmlns:sodipodi="http://sodipodi.sourceforge.net/DTD/sodipodi-0.dtd"
   xmlns="http://www.w3.org/2000/svg"
   xmlns:svg="http://www.w3.org/2000/svg">
  <defs
     id="defs1">
    <inkscape:path-effect
       effect="powerclip"
       id="path-effect9"
       is_visible="true"
       lpeversion="1"
       inverse="true"
       flatten="false"
       hide_clip="false"
       message="Use fill-rule evenodd on &lt;b&gt;fill and stroke&lt;/b&gt; dialog if no flatten result after convert clip to paths." />
    <clipPath
       clipPathUnits="userSpaceOnUse"
       id="clipPath9">
      <path
         style="display:none;fill:#ffffff;stroke:none;stroke-width:0.349999;stroke-linecap:square"
         d="M 7.4999999,0 A 7.5000001,7.5000001 0 0 1 9.3749998e-8,7.5000001 7.5000001,7.5000001 0 0 1 -7.5,0 7.5000001,7.5000001 0 0 1 9.3749998e-8,-7.5000001 7.5000001,7.5000001 0 0 1 7.4999999,0 Z"
         id="path9" />
      <path
         id="lpe_path-effect9"
         style="fill:#ffffff;stroke:none;stroke-width:0.349999;stroke-linecap:square"
         class="powerclip"
         d="M -14.999994,-20.338722 H 20.338784 V 15.000005 H -14.999994 Z M 7.4999999,0 A 7.5000001,7.5000001 0 0 0 9.3749998e-8,-7.5000001 7.5000001,7.5000001 0 0 0 -7.5,0 7.5000001,7.5000001 0 0 0 9.3749998e-8,7.5000001 7.5000001,7.5000001 0 0 0 7.4999999,0 Z" />
    </clipPath>
  </defs>
  <sodipodi:namedview
     id="namedview1"
     pagecolor="#ffffff"
     bordercolor="#000000"
     borderopacity="0.25"
     inkscape:showpageshadow="2"
     inkscape:pageopacity="0.0"
     inkscape:pagecheckerboard="0"
     inkscape:deskcolor="#d1d1d1"
     inkscape:document-units="mm"
     inkscape:zoom="6.4727382"
     inkscape:cx="47.970425"
     inkscape:cy="47.893178"
     inkscape:window-width="1536"
     inkscape:window-height="836"
     inkscape:window-x="0"
     inkscape:window-y="0"
     inkscape:window-maximized="1"
     inkscape:current-layer="Sketch" />
  <g
     id="Sketch"
     transform="matrix(1,0,0,-1,9.999994,10.000005)"
     style="fill:none;fill-opacity:1;stroke:#000000;stroke-opacity:1">
    <path
       style="fill:#2a308f;fill-opacity:1;fill-rule:evenodd;stroke:none;stroke-width:0.35;stroke-linecap:square;stroke-miterlimit:4;stroke-dasharray:none;stroke-opacity:1"
       d="M 7.8995159,-6.1316922 14.970584,-13.20276 A 1.25,1.25 0 1 0 13.2028,-14.9705 L 6.1317561,-7.8994663 A 10,10 0 1 0 7.89952,-6.13169"
       id="Sketch_w0000"
       clip-path="url(#clipPath9)"
       inkscape:path-effect="#path-effect9"
       inkscape:original-d="M 7.8995159,-6.1316922 14.970584,-13.20276 A 1.25,1.25 0 1 0 13.2028,-14.9705 L 6.1317561,-7.8994663 A 10,10 0 1 0 7.89952,-6.13169" />
    <title
       id="title1">b'Sketch'</title>
  </g>
</svg>
