<?xml version="1.0" encoding="UTF-8" standalone="no"?>
<svg
   width="64.081772mm"
   height="103.63937mm"
   viewBox="0 0 64.081775 103.63935"
   version="1.1"
   id="svg1"
   sodipodi:docname="logo-colored-flat.svg"
   inkscape:version="1.3.2 (091e20ef0f, 2023-11-25)"
   inkscape:export-filename="../png/logo.png"
   inkscape:export-xdpi="96"
   inkscape:export-ydpi="96"
   xmlns:inkscape="http://www.inkscape.org/namespaces/inkscape"
   xmlns:sodipodi="http://sodipodi.sourceforge.net/DTD/sodipodi-0.dtd"
   xmlns="http://www.w3.org/2000/svg"
   xmlns:svg="http://www.w3.org/2000/svg">
  <defs
     id="defs1" />
  <sodipodi:namedview
     id="namedview1"
     pagecolor="#ffffff"
     bordercolor="#000000"
     borderopacity="0.25"
     inkscape:showpageshadow="2"
     inkscape:pageopacity="0.0"
     inkscape:pagecheckerboard="0"
     inkscape:deskcolor="#d1d1d1"
     inkscape:document-units="mm"
     inkscape:zoom="0.82027205"
     inkscape:cx="-83.50888"
     inkscape:cy="128.00631"
     inkscape:window-width="1536"
     inkscape:window-height="836"
     inkscape:window-x="0"
     inkscape:window-y="0"
     inkscape:window-maximized="1"
     inkscape:current-layer="svg1" />
  <path
     d="m 63.781775,28.453698 -15.000118,8.660454 v 17.32039 L 36.281645,61.651155 V 47.795154 c -2.5e-5,-1.539587 -1.666498,-2.50199 -2.999817,-1.732194 l -9.000485,5.196065 c -1.856417,1.071801 -2.999828,3.05246 -2.999816,5.196065 v 45.03343 c 1.48e-4,1.53951 1.666559,2.50194 2.999816,1.73219 l 9.000485,-5.196064 c 1.856494,-1.071849 2.999922,-3.052894 2.999817,-5.196582 V 78.972062 L 48.781657,71.754931 V 85.61145 c 1.9e-5,1.539586 1.666494,2.501985 2.999817,1.732194 l 8.999967,-5.196582 c 1.856411,-1.071801 3.000344,-3.052467 3.000334,-5.196065 z"
     style="fill:#2a308f;fill-opacity:1;fill-rule:evenodd;stroke:none;stroke-width:0.3;stroke-linecap:square"
     id="path4" />
  <path
     d="M 15.150118,17.696732 1.1499389,9.6140223 C 0.48324644,9.2291272 0.15000001,8.5554165 0.15000001,7.8818278 V 101.48852 c 1.4698e-4,1.53952 1.66707519,2.50195 3.00033359,1.73219 l 8.9999674,-5.196064 c 1.856495,-1.071849 2.999922,-3.052894 2.999817,-5.196582 z"
     style="fill:#dcb427;fill-opacity:1;fill-rule:evenodd;stroke:#dcb427;stroke-width:0.3;stroke-linecap:square;stroke-opacity:1"
     id="path3" />
  <path
     d="m 13.15024,0.15000001 c -1.035898,0 -2.071615,0.26767066 -2.999817,0.80356857 L 1.1499389,6.1496338 c -1.33338499,0.7697902 -1.33338499,2.6945988 0,3.4643885 L 15.150118,17.696732 48.781657,37.114152 63.781775,28.453698 16.150057,0.95356858 C 15.221855,0.41767067 14.186137,0.15000001 13.15024,0.15000001 Z"
     style="fill:#dcb427;fill-opacity:1;stroke:#dcb427;stroke-width:0.3;stroke-opacity:1"
     id="path2"
     inkscape:label="path2" />
</svg>
