<?xml version="1.0"?>
<!DOCTYPE svg PUBLIC "-//W3C//DTD SVG 1.1//EN" "http://www.w3.org/Graphics/SVG/1.1/DTD/svg11.dtd">
<svg width="64.90402515230701mm" height="104.57503226269611mm" viewBox="0 0 64.90402515230701 104.57503226269611" xmlns="http://www.w3.org/2000/svg" version="1.1">
<g id="Sketch" transform="translate(0.636314,-8.592707) scale(1,-1)">
<path id="Sketch_w0000"  d="M 63.631397208144136 -37.5 L 63.63139720814413 -85.9974226119286 A 6 6 0 0 0 60.6314 -91.1936L 51.63139720814413 -96.38972745734188 A 2 2 0 0 0 48.6314 -94.6577L 48.63139720814413 -80.80127018922194 L 36.13139720814415 -88.01814855409226 L 36.13139720814415 -101.8745550146433 A 6 6 0 0 0 33.1314 -107.071L 24.13139720814417 -112.26685986005657 A 2 2 0 0 0 21.1314 -110.535L 21.13139720814417 -65.50148805569684 A 6 6 0 0 0 24.1314 -60.3053L 33.13139720814414 -55.10918321028359 A 2 2 0 0 0 36.1314 -56.8412L 36.13139720814414 -70.69764047840347 L 48.63139720814412 -63.48076211353316 L 48.63139720814412 -46.16025403784439 L 63.631397208144136 -37.5 L 15.999999999999996 -10.0 A 6 6 0 0 1 10 -10L 0.9999999999999996 -15.19615242270663 A 2 2 0 0 1 1 -18.6603L 15.0 -26.74315780649915 L 15.0 -101.87455501464328 A 6 6 0 0 0 12 -107.071L 3.0000000000000018 -112.26685986005654 A 2 2 0 0 0 0 -110.535L 0.0 -16.928202867500048 M 48.63139720814412 -46.16025403784439 L 15.0 -26.74315780649915 " stroke="#000000" stroke-width="0.35 px" style="stroke-width:0.35;stroke-miterlimit:4;stroke-dasharray:none;stroke-linecap:square;fill:none;fill-opacity:1;fill-rule: evenodd"/>
<title>b'Sketch'</title>
</g>
</svg>