<?xml version="1.0" encoding="UTF-8" standalone="no"?>
<svg
   width="168.72914mm"
   height="103.63937mm"
   viewBox="0 0 168.72914 103.63935"
   version="1.1"
   id="svg1"
   sodipodi:docname="logo-colored-full.svg"
   inkscape:version="1.3.2 (091e20ef0f, 2023-11-25)"
   xml:space="preserve"
   inkscape:export-filename="../../../../../../var/home/rv/Documents/projects/ph-mockup-assets/png/logo-colored-full.png"
   inkscape:export-xdpi="96"
   inkscape:export-ydpi="96"
   xmlns:inkscape="http://www.inkscape.org/namespaces/inkscape"
   xmlns:sodipodi="http://sodipodi.sourceforge.net/DTD/sodipodi-0.dtd"
   xmlns="http://www.w3.org/2000/svg"
   xmlns:svg="http://www.w3.org/2000/svg"><defs
     id="defs1"><rect
       x="339.64349"
       y="177.58011"
       width="484.46609"
       height="148.27077"
       id="rect1" /></defs><sodipodi:namedview
     id="namedview1"
     pagecolor="#ffffff"
     bordercolor="#000000"
     borderopacity="0.25"
     inkscape:showpageshadow="2"
     inkscape:pageopacity="0.0"
     inkscape:pagecheckerboard="0"
     inkscape:deskcolor="#d1d1d1"
     inkscape:document-units="mm"
     inkscape:zoom="1.1600399"
     inkscape:cx="178.01112"
     inkscape:cy="188.78661"
     inkscape:window-width="1536"
     inkscape:window-height="836"
     inkscape:window-x="0"
     inkscape:window-y="0"
     inkscape:window-maximized="1"
     inkscape:current-layer="svg1" /><g
     id="g3"><path
       d="m 63.781775,28.453698 -15.000118,8.660454 v 17.32039 L 36.281645,61.651155 V 47.795154 c -2.5e-5,-1.539587 -1.666498,-2.50199 -2.999817,-1.732194 l -9.000485,5.196065 c -1.856417,1.071801 -2.999828,3.05246 -2.999816,5.196065 v 45.03343 c 1.48e-4,1.53951 1.666559,2.50194 2.999816,1.73219 l 9.000485,-5.196064 c 1.856494,-1.071849 2.999922,-3.052894 2.999817,-5.196582 V 78.972062 L 48.781657,71.754931 V 85.61145 c 1.9e-5,1.539586 1.666494,2.501985 2.999817,1.732194 l 8.999967,-5.196582 c 1.856411,-1.071801 3.000344,-3.052467 3.000334,-5.196065 z"
       style="fill:#2a308f;fill-opacity:1;fill-rule:evenodd;stroke:none;stroke-width:0.3;stroke-linecap:square"
       id="path4" /><g
       id="g2"><path
         d="M 15.150118,17.696732 1.149939,9.6140223 C 0.48324644,9.2291272 0.15000001,8.5554165 0.15000001,7.8818278 V 101.48852 c 1.4698e-4,1.53952 1.66707529,2.50195 3.00033369,1.73219 l 8.9999673,-5.196064 c 1.856495,-1.071849 2.999922,-3.052894 2.999817,-5.196582 z"
         style="fill:#dcb427;fill-opacity:1;fill-rule:evenodd;stroke:#dcb427;stroke-width:0.3;stroke-linecap:square;stroke-dasharray:none;stroke-opacity:1"
         id="path3" /></g><path
       d="m 13.15024,0.15000001 c -1.035898,0 -2.071615,0.26767066 -2.999817,0.80356857 L 1.149939,6.1496338 c -1.33338509,0.7697902 -1.33338509,2.6945988 0,3.4643885 L 15.150118,17.696732 48.781657,37.114152 63.781775,28.453698 16.150057,0.95356858 C 15.221855,0.41767067 14.186137,0.15000001 13.15024,0.15000001 Z"
       style="fill:#dcb427;fill-opacity:1;stroke:#dcb427;stroke-width:0.3;stroke-dasharray:none;stroke-opacity:1"
       id="path2"
       inkscape:label="path2" /></g><g
     id="g1"
     style="fill:#2a308f;fill-opacity:1"
     transform="translate(-9.8402488,1.1386317)"><text
       xml:space="preserve"
       style="font-style:normal;font-variant:normal;font-weight:bold;font-stretch:normal;font-size:1.5475px;font-family:Geologica;-inkscape-font-specification:'Geologica Bold';white-space:pre;inline-size:11.7658;display:inline;fill:#2a308f;fill-opacity:1;fill-rule:evenodd;stroke:none;stroke-width:0.499999;stroke-dasharray:none"
       x="95.476456"
       y="18.708223"
       id="text5"
       transform="matrix(16.413529,0,0,16.413529,-1486.823,-257.91992)"><tspan
         x="95.476456"
         y="18.708223"
         id="tspan3"><tspan
           style="stroke-width:0.5"
           id="tspan2">pioneer</tspan></tspan></text><text
       xml:space="preserve"
       transform="matrix(0.26458333,0,0,0.26458333,-9.5794122,1.368487)"
       id="text1"
       style="font-style:normal;font-variant:normal;font-weight:bold;font-stretch:normal;font-size:96px;font-family:Geologica;-inkscape-font-specification:'Geologica Bold';white-space:pre;shape-inside:url(#rect1);display:inline;fill:#2a308f;fill-opacity:1;fill-rule:evenodd;stroke-width:1.88976"><tspan
         x="339.64258"
         y="264.46008"
         id="tspan4">house</tspan></text></g></svg>
