<?xml version="1.0" encoding="UTF-8" standalone="no"?>
<svg
   width="620.68823mm"
   height="103.63937mm"
   viewBox="0 0 620.68824 103.63932"
   version="1.1"
   id="svg1"
   sodipodi:docname="logo-colored-long-dark.svg"
   inkscape:version="1.3.2 (091e20ef0f, 2023-11-25)"
   xml:space="preserve"
   inkscape:export-filename="../../../../../../var/home/rv/Documents/projects/ph-mockup-assets/png/logo-colored-long-dark-bg.png"
   inkscape:export-xdpi="96"
   inkscape:export-ydpi="96"
   xmlns:inkscape="http://www.inkscape.org/namespaces/inkscape"
   xmlns:sodipodi="http://sodipodi.sourceforge.net/DTD/sodipodi-0.dtd"
   xmlns="http://www.w3.org/2000/svg"
   xmlns:svg="http://www.w3.org/2000/svg"><defs
     id="defs1"><rect
       x="339.64349"
       y="177.58011"
       width="484.46609"
       height="148.27077"
       id="rect1" /></defs><sodipodi:namedview
     id="namedview1"
     pagecolor="#ffffff"
     bordercolor="#000000"
     borderopacity="0.25"
     inkscape:showpageshadow="2"
     inkscape:pageopacity="0.0"
     inkscape:pagecheckerboard="0"
     inkscape:deskcolor="#d1d1d1"
     inkscape:document-units="mm"
     inkscape:zoom="0.41013602"
     inkscape:cx="345.00749"
     inkscape:cy="31.696801"
     inkscape:window-width="1536"
     inkscape:window-height="836"
     inkscape:window-x="0"
     inkscape:window-y="0"
     inkscape:window-maximized="1"
     inkscape:current-layer="svg1"
     inkscape:export-bgcolor="#181b50ff" /><g
     id="g1"><path
       d="m 63.781775,28.453698 -15.000118,8.660454 v 17.32039 L 36.281645,61.651155 V 47.795154 c -2.5e-5,-1.539587 -1.666498,-2.50199 -2.999817,-1.732194 l -9.000485,5.196065 c -1.856417,1.071801 -2.999828,3.05246 -2.999816,5.196065 v 45.03343 c 1.48e-4,1.53951 1.666559,2.50194 2.999816,1.73219 l 9.000485,-5.196064 c 1.856494,-1.071849 2.999922,-3.052894 2.999817,-5.196582 V 78.972062 L 48.781657,71.754931 V 85.61145 c 1.9e-5,1.539586 1.666494,2.501985 2.999817,1.732194 l 8.999967,-5.196582 c 1.856411,-1.071801 3.000344,-3.052467 3.000334,-5.196065 z"
       style="fill:#ffffff;fill-opacity:1;fill-rule:evenodd;stroke:none;stroke-width:0.3;stroke-linecap:square"
       id="path4" /><path
       d="M 15.150118,17.696732 1.149939,9.614022 C 0.48324601,9.229127 0.15000001,8.555416 0.15000001,7.881828 v 93.606692 c 1.47e-4,1.53952 1.66707499,2.50195 3.00033399,1.73219 l 8.999967,-5.196064 c 1.856495,-1.071849 2.999922,-3.052894 2.999817,-5.196582 z"
       style="fill:#dcb427;fill-opacity:1;fill-rule:evenodd;stroke:#dcb427;stroke-width:0.3;stroke-linecap:square;stroke-dasharray:none;stroke-opacity:1"
       id="path3" /><path
       d="m 13.15024,0.15000001 c -1.035898,0 -2.071615,0.26767 -2.999817,0.803568 L 1.149939,6.149634 c -1.33338499,0.76979 -1.33338499,2.694598 0,3.464388 l 14.000179,8.08271 33.631539,19.41742 L 63.781775,28.453698 16.150057,0.95356801 c -0.928202,-0.535898 -1.96392,-0.803568 -2.999817,-0.803568 z"
       style="fill:#dcb427;fill-opacity:1;stroke:#dcb427;stroke-width:0.3;stroke-dasharray:none;stroke-opacity:1"
       id="path2"
       inkscape:label="path2" /></g><text
     xml:space="preserve"
     style="font-style:normal;font-variant:normal;font-weight:bold;font-stretch:normal;font-size:1.5475px;font-family:Geologica;-inkscape-font-specification:'Geologica Bold';white-space:pre;inline-size:11.7658;display:inline;fill:#ffffff;fill-opacity:1;fill-rule:evenodd;stroke:none;stroke-width:0.499999;stroke-dasharray:none"
     x="95.476456"
     y="18.708223"
     id="text5"
     transform="matrix(48.965239,0,0,48.965239,-4610.8886,-843.09208)"><tspan
       x="95.476456"
       y="18.708223"
       id="tspan3"><tspan
         style="stroke-width:0.5"
         id="tspan2"> pioneer house</tspan></tspan></text></svg>
